<svg id="Layer_1" xmlns="http://www.w3.org/2000/svg" viewBox="0 0 464.3 235.7"><style>.st0{fill:#FFFFFF;}</style><path class="st0" d="M0 80v114.1l402.6-71v-11.4L11.4 180.6V89.5l431.1-76V99l11.4-2V0zM442.5 104.6V116l11.4-2v-11.4z"/><path class="st0" d="M425.4 107.6l11.4-2v11.5l-11.4 2zM408.2 110.7l11.4-2.1v11.5l-11.4 2zM36.3 131.9c-5.3-3.9-7.2-5.4-7.2-14.7 0-13.4 3.3-19.5 16.3-21.7C59 93 60.3 99.6 60 114l-12 2.1v-4.5c0-3.3-.2-5.4-3.5-4.8-3.2.6-3.2 3.6-3.2 6.3 0 3.5.1 4.8 2.4 6.2l10.8 7.4c4.8 3.3 6.7 4.9 6.7 14.9 0 7.1-1.1 10.7-3.3 14-2.1 3.2-5.5 6-13.1 7.3-5.8 1-10.1.5-12.9-1.8-3.8-3.3-3.7-9.2-3.6-17.1l12.5-2.2v5.1c0 1.6 0 5.3 3.7 4.6 3.9-.7 4-3.8 4-5.3 0-5-.1-5.4-4.7-8.8l-7.5-5.5zM79.9 90.5v49.2c0 2 0 5.8 3.9 5.1 3.7-.7 3.7-4.1 3.7-6.2V89.2l12.6-2.2v47c0 8-.1 19.4-15.8 22.1-17.1 3-17.1-8.3-17.1-15.9V92.7l12.7-2.2zM108.1 85.4l21.1-3.7c9.2-1.6 12.3 1.6 12.3 11.2v13.4c0 12.5-4.1 15.5-11.6 16.8l-9.1 1.6v23.8l-12.6 2.2V85.4zm16.9 27.1c4.7-.7 4.7-2.5 4.7-10.8 0-6.2 0-7.5-1.6-8.1-.9-.3-5.8.6-7.3.8v18.9l4.2-.8zM174.7 73.7v11.6l-14.3 2.5v15l13.5-2.4v11.5l-13.5 2.4V130l14.3-2.5v11.6l-27 4.7V78.5zM180.9 72.6l17.8-3.1c3.3-.6 8.1-1.2 11 2.3 2.3 2.9 2.5 7.4 2.5 12 0 9.7-2.6 12.3-6.6 15.7 6.2.8 6.7 3.9 6.7 11.9v13.9c0 4.3.7 5.5 1.8 6.9l-11.6 2c-.9-2-1.8-3.8-1.8-9.1 0-1.6.1-9.5.1-11.3 0-7.2-1.1-7-8.1-5.7v27.8l-11.8 2.1V72.6zm11.9 9.3v14.9c3.8-.7 4.9-.9 5.5-1.1 2.5-1.1 2.7-3.5 2.7-8.5 0-5.6-.7-6.5-4.4-5.9l-3.8.6zM220.5 65.6l19-3.4c4.6-.8 7.4-.4 9.2.6 5.3 2.7 5.3 9.3 5.3 13.1v32.6c0 4 0 8.6-2.5 12.6-2.8 4.5-7.3 5.6-11.4 6.4l-19.5 3.4V65.6zm12.2 9.3v42.7l3.9-.7c3.5-.6 4.7-1.9 4.7-6.4V79.3c0-4.2-1.1-5.7-4.7-5.1l-3.9.7zM261 58.5l17.8-3.1c3.3-.6 8.1-1.2 11 2.3 2.3 2.9 2.5 7.4 2.5 12 0 9.7-2.6 12.3-6.6 15.7 6.2.8 6.7 3.9 6.7 11.9v13.9c0 4.3.7 5.5 1.8 6.9l-11.6 2c-.9-2-1.8-3.8-1.8-9.1 0-1.6.1-9.5.1-11.3 0-7.2-1.1-7-8.1-5.7v27.8l-11.8 2.1V58.5zm11.9 9.3v14.9c3.8-.7 4.9-.9 5.5-1.1 2.5-1.1 2.7-3.5 2.7-8.5 0-5.6-.7-6.5-4.4-5.9l-3.8.6zM327.6 46.7v11.6l-14.4 2.5v15l13.6-2.4V85l-13.6 2.4v15.7l14.4-2.5v11.5l-27 4.8V51.5zM342.7 44.2l16.9-3 10.6 63.4-12.4 2.2-1.8-14.6-9.7 1.7-1.8 15.2-12.4 2.2 10.6-67.1zm8.6 8.8l-3.6 29.7 7-1.2-3.4-28.5zM425.4 29.6v65.3l-11.2 2V55.3c0-3 0-3.5.1-6.4l-8.2 49.3-11.1 2-8.3-46.7c.1 3.7.2 9.1.2 11.7v36.4l-11.1 2V38.3l16.9-3 5.1 29.5c1.6 9 1.7 10 2.9 18.8.3-3 .7-7.3 1.4-12l6.2-39.1 17.1-2.9z"/><g><path class="st0" d="M7.1 204.3c2.8 9.3 3.4 11.4 5.1 17.8-.2-5-.2-6.1-.1-10 .1-4.4.1-4.8.1-8.7l5.8-1-.9 30.3-6.1 1.1-2.4-8.2c-1.4-4.6-1.5-5.1-2.6-9.4v18.6l-5.9 1 .9-30.3 6.1-1.2zM19.9 210.6c.2-4.9.5-9.2 7.7-10.5 1.4-.2 4.2-.5 6.2.5 2 1.1 2.6 3 2.9 4.4.3 1.9.2 4.6.2 6.6l-.3 10.2c-.2 5.9-2 8.3-7.8 9.4-3.5.6-8.1.3-9-5.2-.2-1.1-.2-2.8-.2-3.7l.3-11.7zm6 13.9c.2 1.1 1 1.6 2.2 1.4 1.8-.3 1.9-1.8 2.1-4.5.1-1.6.4-9.6.4-11.4.1-2.4.1-2.6 0-3-.2-1.1-.9-1.8-2.2-1.5-1.6.3-1.8 1.3-1.9 2.2 0 1.8-.8 15.8-.6 16.8zM39.1 198.7l7.7-1.4c3.7-.7 7.7-1.4 8.5 3.4.3 1.5.2 4.6-.2 6.3-.6 2.6-2.2 3.5-4.1 4.2 1 0 3.6.1 4.1 2.8.1.6.1 1.2.1 2.2v4.6c0 .6 0 2.8.1 3.3.2 1.3 1.1 1.4 1.5 1.5v.2l-5.5.8c-1.1.2-2-.2-2.2-1.5 0-.2-.1-.5-.1-1.9v-5.4c0-1.1 0-1.4-.1-1.8-.3-1.4-1.3-1.4-2.1-1.2l-1.8.3-.4 12.7-6.4 1.1.9-30.2zm6.1 11l1.7-.3c1.3-.3 2.1-.4 2.4-2 .2-.9.2-3.6.1-4-.2-1.1-1-1.1-1.4-1-.4 0-.6.1-2.6.4l-.2 6.9zM57.9 195.4l8.8-1.6 1.2 8.3c.1.7.7 4.4.8 5.2.3 2.5.6 4.5.9 7.3.3-1.5.6-3.3 1-5.2.3-1.6.7-3.8.9-4.8l2.5-12 8.7-1.5-.9 30.3-5.9 1 1.1-22.5-4.9 23.1-5.3.9-3.6-21.7-.2 22.4-5.9 1 .8-30.2zM89.1 189.9l10.2-1.8 3.3 29.5-6.2 1.1-.6-6.6-4.9.9-1.1 6.9L83 221l6.1-31.1zm4.7 1.9l-2.1 15.9 3.6-.6-1.5-15.3zM111 186l-.7 25.1 6.7-1.2-.2 5.1-13.1 2.3.9-30.3 6.4-1zM130.7 202.2c-.1 1.3-.2 3.2 0 3.9.3 1.9 1.9 1.6 2.2 1.6.8-.1 1.4-.5 1.7-1.2.4-.8.4-2.8.3-3.7-.2-1-.6-1.5-1.8-2.2-.6-.4-.9-.5-2.9-1.7-3.3-1.9-4.4-2.5-4.9-5.2-.4-2.2.1-6.5.9-8.4.5-1.1 1.3-2.8 6-3.6 4.7-.8 8.1-.1 8.9 4.1.2 1.2.2 2.4.1 4.4l-6 1.1c0-.9.1-2.6 0-3.2-.2-1.4-1.3-1.5-2-1.4-1.2.2-1.5 1-1.6 1.3-.4.9-.3 2.8-.2 3.4.2 1.3.7 1.6 3.2 3 5.5 3.2 6.3 3.9 6.7 6.4.1.6.1 1.2.1 1.8.1 6-1.4 9-7.8 10.1-3.4.6-8.3.7-9.2-4.3-.3-1.5-.2-3.3-.1-5l6.4-1.2zM150.1 179.1l-.7 25.1 6.7-1.2-.2 5.1-13.1 2.3.9-30.3 6.4-1zM157.7 177.7l13.2-2.3-.2 5.2-6.8 1.2-.2 6.9 6.5-1.1-.1 5.1-6.5 1.1-.2 7.7 7.4-1.3-.1 5.3-13.9 2.4.9-30.2zM173.3 175l13.2-2.3-.2 5.2-6.8 1.2-.2 6.9 6.5-1.1-.1 5.1-6.5 1.1-.2 7.7 7.4-1.3-.1 5.3-13.9 2.4.9-30.2zM188.9 172.2l9.9-1.7c1.6-.3 5.6-.9 6.4 3.6.1.6.2 1.5.2 2.4l-.1 4.4c-.1 4.9-1.2 6.7-5.7 7.5l-4.8.9-.4 12.1-6.4 1.1.9-30.3zm6.2 4.1l-.3 7.5 2.5-.4c.8-.1 1.6-.4 1.8-2 .1-.6.2-3.4.1-4.3-.2-1.4-1.5-1.2-1.9-1.1l-2.2.3zM212.6 187.8c-.1 1.3-.2 3.2 0 3.9.3 1.9 1.9 1.6 2.2 1.6.8-.1 1.4-.5 1.7-1.2.4-.8.4-2.8.3-3.7-.2-1-.6-1.5-1.8-2.2-.6-.4-.9-.5-2.9-1.7-3.3-1.9-4.4-2.5-4.9-5.2-.4-2.2.1-6.5.9-8.4.5-1.1 1.3-2.8 6-3.6 4.7-.8 8.1-.1 8.9 4.1.2 1.2.2 2.4.1 4.4l-6 1.1c0-.9.1-2.6 0-3.2-.2-1.4-1.3-1.5-2-1.4-1.2.2-1.5 1-1.6 1.3-.4.9-.3 2.8-.2 3.4.2 1.3.7 1.6 3.2 3 5.5 3.2 6.3 3.9 6.7 6.4.1.6.1 1.2.1 1.8.1 6-1.4 9-7.8 10.1-3.4.6-8.3.7-9.2-4.3-.3-1.5-.2-3.3-.1-5l6.4-1.2zM225.6 189.3l5.5-1-.2 6.6-5.5 1 .2-6.6zM246.9 181.7c-.1 1.3-.2 3.2 0 3.9.3 1.9 1.9 1.6 2.2 1.6.8-.1 1.4-.5 1.7-1.2.4-.8.4-2.8.3-3.7-.2-1-.6-1.5-1.8-2.2-.6-.4-.9-.5-2.9-1.7-3.3-1.9-4.4-2.5-4.9-5.2-.4-2.2.1-6.5.9-8.4.5-1.1 1.3-2.8 6-3.6 4.7-.8 8.1-.1 8.9 4.1.2 1.2.2 2.4.1 4.4l-6 1.1c0-.9.1-2.6 0-3.2-.2-1.4-1.3-1.5-2-1.4-1.2.2-1.5 1-1.6 1.3-.4.9-.3 2.8-.2 3.4.2 1.3.7 1.6 3.2 3 5.5 3.2 6.3 3.9 6.7 6.4.1.6.1 1.2.1 1.8.1 6-1.4 9-7.8 10.1-3.4.6-8.3.7-9.2-4.3-.3-1.5-.2-3.3-.1-5l6.4-1.2zM260.3 159.6l6.3-1.1-.6 21.6c0 .3 0 1 .1 1.7.2 1.2 1.1 1.6 2.2 1.4 1.8-.3 2-2.1 2.1-3.8l.6-21.6 6.3-1.1-.7 21.7c-.1 4.6-.7 9.2-7.9 10.5-4.2.7-8.2-.3-8.9-5-.2-1.4-.3-3-.2-6.3l.7-18zM280.2 156.1l9.9-1.7c1.6-.3 5.6-.9 6.4 3.6.1.6.2 1.5.2 2.4l-.1 4.4c-.1 4.9-1.2 6.7-5.7 7.5l-4.8.9-.4 12.1-6.4 1.1.9-30.3zm6.2 4.1l-.3 7.5 2.5-.4c.8-.1 1.6-.4 1.8-2 .1-.6.2-3.4.1-4.3-.2-1.4-1.5-1.2-1.9-1.1l-2.2.3zM298.8 152.8l13.2-2.3-.2 5.2-6.8 1.2-.2 6.9 6.5-1.1-.1 5.1-6.5 1.1-.2 7.7 7.4-1.3-.1 5.3-13.9 2.4.9-30.2zM314.4 150.1l7.7-1.4c3.7-.7 7.7-1.4 8.5 3.4.3 1.5.2 4.6-.2 6.3-.6 2.6-2.2 3.5-4.1 4.2 1 0 3.6.1 4.1 2.8.1.6.1 1.2.1 2.2v4.6c0 .6 0 2.8.1 3.3.2 1.3 1.1 1.4 1.5 1.5v.2l-5.5.8c-1.1.2-2-.2-2.2-1.5 0-.2-.1-.5-.1-1.9v-5.4c0-1.1 0-1.4-.1-1.8-.3-1.5-1.3-1.4-2.1-1.2l-1.8.3-.4 12.7-6.4 1.1.9-30.2zm6 11l1.8-.3c1.3-.3 2.1-.4 2.4-2 .2-.9.2-3.6.1-4-.2-1.1-1-1.1-1.4-1-.4 0-.6.1-2.6.4l-.3 6.9zM340.9 145.3l7.4-1.3c4.6-.8 8.3-1.4 9.2 3.5.1.7.2 1.8.2 2.8l-.4 14.9c-.1 5.5-.8 7.5-6 8.4l-11.2 2 .8-30.3zm6.2 4.1l-.6 20.1c2.2-.4 2.3-.4 2.8-.6.5-.2 1.6-.5 1.6-3.1l.4-14.7c0-.2 0-.5-.1-.8-.2-1.4-1.1-1.5-2.1-1.3l-2 .4zM359.7 142.1l7.7-1.4c3.7-.7 7.7-1.4 8.5 3.4.3 1.5.2 4.6-.2 6.3-.6 2.6-2.2 3.5-4.1 4.2 1 0 3.6.1 4.1 2.8.1.6.1 1.2.1 2.2v4.6c0 .6 0 2.8.1 3.3.2 1.3 1.1 1.4 1.5 1.5v.2l-5.5.8c-1.1.2-2-.2-2.2-1.5 0-.2-.1-.5-.1-1.9v-5.4c0-1.1 0-1.4-.1-1.8-.3-1.4-1.3-1.4-2.1-1.2l-1.8.3-.4 12.7-6.4 1.1.9-30.2zm6 11l1.8-.3c1.3-.3 2.1-.4 2.4-2 .2-.9.2-3.6.1-4-.2-1.1-1-1.1-1.4-1-.4 0-.6.1-2.6.4l-.3 6.9zM379.1 138.6l13.2-2.3-.2 5.2-6.8 1.2-.2 6.9 6.5-1.1-.1 5.1-6.5 1.1-.2 7.7 7.4-1.3-.1 5.3-13.9 2.4.9-30.2zM398.7 135.2l10.2-1.8 3.3 29.5-6.2 1.1-.6-6.6-4.9.9-1.1 6.9-6.8 1.2 6.1-31.2zm4.7 1.9l-2.1 15.9 3.6-.6-1.5-15.3zM414.2 132.4l8.8-1.6 1.2 8.3c.1.7.7 4.4.8 5.2.3 2.5.6 4.5.9 7.3.3-1.5.6-3.3 1-5.2.3-1.6.7-3.8.9-4.8l2.5-12 8.7-1.5-.9 30.3-5.9 1 1.1-22.5-4.9 23.2-5.3.9-3.6-21.7-.2 22.4-5.9 1 .8-30.3zM446.5 146.5c-.1 1.3-.2 3.2 0 3.9.3 1.9 1.9 1.6 2.2 1.6.8-.1 1.4-.5 1.7-1.2.4-.8.4-2.8.3-3.7-.2-1-.6-1.5-1.8-2.2-.6-.4-.9-.5-2.9-1.7-3.3-1.9-4.4-2.5-4.9-5.2-.4-2.2.1-6.5.9-8.4.5-1.1 1.3-2.8 6-3.6 4.7-.8 8.1-.1 8.9 4.1.2 1.2.2 2.4.1 4.4l-6 1.1c0-.9.1-2.6 0-3.2-.2-1.4-1.3-1.5-2-1.4-1.2.2-1.5 1-1.6 1.3-.4.9-.3 2.8-.2 3.4.2 1.3.7 1.6 3.2 3 5.5 3.2 6.3 3.9 6.7 6.4.1.6.1 1.2.1 1.8.1 6-1.4 9-7.8 10.1-3.4.6-8.3.7-9.2-4.3-.3-1.5-.2-3.3-.1-5l6.4-1.2zM458.7 148.2l5.5-1-.2 6.6-5.5 1 .2-6.6z"/></g></svg>